<svg width="1200" height="180" viewBox="0 0 1200 180" xmlns="http://www.w3.org/2000/svg" role="img" aria-label="Subtle animated starfield">
  <defs>
    <linearGradient id="bg" x1="0" y1="0" x2="1200" y2="180" gradientUnits="userSpaceOnUse">
      <stop offset="0%" stop-color="#0f172a" />
      <stop offset="100%" stop-color="#111827" />
    </linearGradient>
  </defs>

  <rect width="1200" height="180" fill="url(#bg)" />

  <g opacity="0.45">
    <circle cx="60" cy="28" r="1.1" fill="#93c5fd" />
    <circle cx="188" cy="64" r="0.8" fill="#38bdf8" />
    <circle cx="286" cy="36" r="1.2" fill="#c4b5fd" />
    <circle cx="414" cy="82" r="0.9" fill="#38bdf8" />
    <circle cx="532" cy="22" r="1.1" fill="#93c5fd" />
    <circle cx="678" cy="58" r="0.8" fill="#c4b5fd" />
    <circle cx="812" cy="30" r="1.1" fill="#38bdf8" />
    <circle cx="946" cy="72" r="0.8" fill="#93c5fd" />
    <circle cx="1088" cy="40" r="1.2" fill="#c4b5fd" />
  </g>

  <g opacity="0.75">
    <circle cx="120" cy="124" r="1.4" fill="#38bdf8" />
    <circle cx="252" cy="152" r="1.0" fill="#93c5fd" />
    <circle cx="380" cy="116" r="1.3" fill="#c4b5fd" />
    <circle cx="520" cy="146" r="1.0" fill="#38bdf8" />
    <circle cx="652" cy="120" r="1.2" fill="#93c5fd" />
    <circle cx="790" cy="156" r="1.0" fill="#c4b5fd" />
    <circle cx="918" cy="118" r="1.3" fill="#38bdf8" />
    <circle cx="1050" cy="148" r="1.0" fill="#93c5fd" />
  </g>

  <g>
    <animateTransform attributeName="transform" type="translate" values="0 0;-40 0;0 0" dur="36s" repeatCount="indefinite" />
    <circle cx="36" cy="90" r="1.2" fill="#38bdf8" opacity="0.8" />
    <circle cx="234" cy="96" r="1.1" fill="#c4b5fd" opacity="0.8" />
    <circle cx="454" cy="102" r="1.2" fill="#93c5fd" opacity="0.8" />
    <circle cx="676" cy="94" r="1.1" fill="#38bdf8" opacity="0.8" />
    <circle cx="890" cy="100" r="1.2" fill="#c4b5fd" opacity="0.8" />
    <circle cx="1118" cy="92" r="1.1" fill="#93c5fd" opacity="0.8" />
  </g>

  <g>
    <animateTransform attributeName="transform" type="translate" values="0 0;24 0;0 0" dur="24s" repeatCount="indefinite" />
    <circle cx="90" cy="52" r="0.7" fill="#ffffff" opacity="0.45" />
    <circle cx="308" cy="74" r="0.7" fill="#ffffff" opacity="0.45" />
    <circle cx="564" cy="50" r="0.7" fill="#ffffff" opacity="0.45" />
    <circle cx="786" cy="68" r="0.7" fill="#ffffff" opacity="0.45" />
    <circle cx="1002" cy="54" r="0.7" fill="#ffffff" opacity="0.45" />
  </g>
</svg>
